<svg enable-background="new 0 0 200 33" viewBox="0 0 200 33" xmlns="http://www.w3.org/2000/svg"><path d="m13 3c1.2 0 2.3.2 3.3.6s1.8.9 2.4 1.5 1.1 1.2 1.4 1.8.6 1.1.8 1.7l-4.2 1.9c-.8-1.8-2.1-2.8-3.7-2.8-.8 0-1.5.2-2 .7s-.7 1-.7 1.7.4 1.4 1.1 2c.8.6 1.7 1.1 2.8 1.6s2.1 1 3.2 1.6 2 1.4 2.7 2.5c.8 1.1 1.1 2.3 1.1 3.8 0 2.3-.8 4.1-2.3 5.6-1.5 1.4-3.6 2.1-6.2 2.1-1.3 0-2.4-.2-3.5-.6-1-.4-1.9-.9-2.5-1.6s-1.1-1.3-1.5-1.9-.7-1.2-.9-1.8l4.3-2.1c.9 2.2 2.3 3.2 4.4 3.2.9 0 1.7-.2 2.2-.7s.8-1.1.8-1.9-.4-1.5-1.1-2.1-1.7-1.2-2.7-1.6c-1.1-.5-2.1-1-3.2-1.6s-2-1.5-2.7-2.5c-.9-1.1-1.3-2.4-1.2-3.9 0-2.2.7-3.9 2.2-5.2 1.4-1.3 3.3-2 5.7-2z"/><path d="m30.5 29.4c-4.3 0-6.4-2.8-6.4-8.3v-10.7h4.9v11.2c0 1 .3 1.8.9 2.4s1.3.9 2.2.9c1 0 1.8-.3 2.4-1 .6-.6.9-1.5.9-2.5v-11.1h4.9v18.5h-4.8v-2.2c-.4.7-1.1 1.3-2 1.8-.9.7-1.9 1-3 1z"/><path d="m43.9 29.5v-19h4.9v19z"/><path d="m63.4 19.8c0-2.8.9-5.1 2.6-7 1.7-1.8 3.9-2.8 6.5-2.8 2.8 0 5 .9 6.6 2.7s2.4 4.2 2.4 7.2v1.1h-13c0 1.2.5 2.3 1.4 3.1s2 1.2 3.4 1.2c2 0 3.5-.7 4.5-2.3l3.2 2.4c-.5.9-1.4 1.9-2.8 2.7-1.3.9-3 1.3-5 1.3-2.9 0-5.3-.9-7-2.7-1.9-1.7-2.8-4-2.8-6.9zm5.2-2h8c0-1.1-.4-2-1.2-2.7-.7-.7-1.7-1-2.8-1s-2.1.3-2.8 1.1c-.7.6-1.1 1.5-1.2 2.6z"/><path d="m89.8 29.5c-1.7 0-3.1-.3-4.3-1s-2-1.5-2.6-2.4l2.9-2.5c1.2 1.3 2.6 2 4.2 2 .7 0 1.3-.1 1.7-.4s.6-.7.6-1.2-.3-.9-.9-1.3-1.3-.7-2.2-1-1.7-.7-2.6-1.1c-.8-.4-1.6-1-2.2-1.9-.6-.8-.9-1.9-.9-3.1 0-1.7.6-3 1.9-4s2.9-1.5 4.8-1.5c2.9 0 5 1.1 6.3 3.3l-3.2 2.4c-.9-1.2-2-1.8-3.3-1.8-.6 0-1 .1-1.4.4s-.5.6-.5 1.1.3 1 .9 1.3c.6.4 1.3.7 2.2.9.9.3 1.7.6 2.6 1s1.6 1 2.2 1.8.9 1.9.9 3.1c0 1.8-.7 3.2-2 4.3s-3 1.7-5.1 1.6z"/><path d="m109.5 10.3c4.3 0 6.5 2.8 6.5 8.4v10.9h-4.9v-11.5c0-1-.3-1.8-.9-2.5-.6-.6-1.3-.9-2.2-.9-1 0-1.9.3-2.5 1s-.9 1.5-.9 2.5v11.3h-5l.1-26.1h5v9.4c.5-.7 1.1-1.4 2-1.9.7-.3 1.7-.6 2.8-.6z"/><path d="m118.4 23.4c0-1.8.7-3.3 2-4.4s3.1-1.7 5.2-1.7c1.7 0 3 .3 4 1v-1.2c0-.8-.3-1.5-.9-2s-1.4-.7-2.5-.7c-1.6 0-3.2.4-4.9 1.3l-1.8-3.3c.9-.6 2-1.1 3.3-1.5s2.6-.6 4-.6c2.8 0 4.8.7 5.9 1.9 1.2 1.3 1.8 3.1 1.8 5.3v12.2h-4.4l-.3-1.7c-1 1.1-2.5 1.7-4.5 1.7s-3.6-.6-4.9-1.7c-1.4-1.2-2-2.7-2-4.6zm5.7-2c-.6.5-.9 1.1-.9 1.9s.3 1.4.9 1.8 1.4.7 2.3.7 1.7-.2 2.3-.7.9-1.1.9-1.9-.3-1.4-.9-1.9-1.4-.7-2.3-.7c-.9.1-1.7.4-2.3.8z"/><path d="m147.9 10.3v5.1c-3.4 0-5.1 2-5.1 6.1v8.3h-5v-19h4.9v2.8c.4-1 1.1-1.7 2-2.3 1-.7 2-1 3.2-1z"/><path d="m43.8 3.2h5.1v4.9h-5.1z" transform="matrix(.00248402 -1 1 .00248402 40.6094 52.0416)"/><path d="m57.3 3.1h-5.3v26.4h5.2l.1-13.6h5.2l.1-5.3h-5.3z"/><path d="m167 20.5c0-6.1-3.3-10-9.2-10-5.4 0-9.3 4.2-9.3 9.9v.2c0 5.1 4.1 9.2 9.2 9.3v-5c-2.1 0-3.9-1.5-4.2-3.6h13.4c.1-.3.1-.6.1-.8zm-12.9-2.8c.4-1.8 1.8-3.1 3.7-3.1s3.4 1.2 3.7 3.1z"/><path d="m163.2 24.6h.3c1.9 0 3.5 1.6 3.4 3.5v3.8h-3.8c-1.9 0-3.5-1.6-3.4-3.5v-.3c.1-2 1.6-3.5 3.5-3.5z" fill="#00bf54"/></svg>