<svg xmlns="http://www.w3.org/2000/svg" xmlns:xlink="http://www.w3.org/1999/xlink" width="66" height="67" viewBox="0 0 66 67">
    <defs>
        <clipPath id="clip-path">
            <rect id="Retângulo_56" data-name="Retângulo 56" width="66" height="67" transform="translate(0 0.379)" fill="#e64f38"/>
        </clipPath>
    </defs>
    <g id="Grupo_24" data-name="Grupo 24" transform="translate(0 -0.379)">
        <g id="Grupo_23" data-name="Grupo 23" transform="translate(0 0)" clip-path="url(#clip-path)">
            <path id="Caminho_8" data-name="Caminho 8" d="M33.294,0A33.276,33.276,0,0,0,7.629,54.478c.012.017.013.038.027.053a33.285,33.285,0,0,0,12.572,9.381l.165.072c.39.164.784.316,1.179.465.155.059.311.119.468.175q.511.183,1.029.348c.221.071.442.141.665.207q.458.137.92.262c.271.073.544.141.817.206s.554.133.832.192c.311.067.625.125.94.183.253.047.5.1.76.137.35.057.7.1,1.054.146.228.029.454.062.683.087.4.042.8.072,1.206.1.188.013.374.033.563.043q.884.05,1.786.051c.6,0,1.2-.018,1.788-.049.189-.01.375-.03.563-.043.4-.029.807-.058,1.206-.1.229-.024.455-.058.683-.087.353-.046.7-.09,1.054-.146.254-.041.507-.09.76-.137.314-.058.628-.117.94-.183.279-.06.555-.125.832-.192s.546-.134.817-.206c.309-.082.615-.171.92-.262.223-.067.444-.137.665-.208q.518-.166,1.029-.348c.156-.057.312-.117.468-.175.4-.149.789-.3,1.179-.465l.165-.072a33.294,33.294,0,0,0,12.572-9.381c.013-.016.014-.038.027-.053A33.28,33.28,0,0,0,33.294,0m6.641,34.645a11.756,11.756,0,0,1-1.36.76c-.055.027-.11.054-.165.08a12.487,12.487,0,0,1-10.232,0c-.055-.026-.111-.053-.165-.08a11.665,11.665,0,0,1-1.36-.76,12.208,12.208,0,1,1,13.282,0m-13.7,2.344c.093.052.185.108.28.158.331.175.666.34,1.009.487.263.115.535.213.806.313l.16.059a14.164,14.164,0,0,0,9.6,0l.16-.059c.271-.1.543-.2.806-.313.343-.148.678-.312,1.009-.487.094-.051.186-.105.28-.158.159-.089.321-.173.476-.269a24.5,24.5,0,0,1,16.031,16.8,31.256,31.256,0,0,1-10.068,7.762l-.049.024c-.4.191-.8.371-1.205.546l-.275.118q-.533.223-1.077.425c-.151.057-.3.112-.454.165-.321.114-.643.224-.968.328-.2.064-.405.125-.608.185-.289.087-.578.17-.871.247-.246.065-.495.125-.744.184s-.521.125-.784.181c-.287.061-.577.113-.866.165-.234.043-.467.089-.7.127-.325.051-.654.092-.981.133-.208.027-.414.058-.624.08-.374.04-.751.065-1.128.092-.168.011-.334.03-.5.039q-.824.043-1.653.044t-1.651-.044c-.169-.009-.335-.027-.5-.039-.377-.026-.754-.052-1.128-.092-.21-.022-.416-.053-.624-.08-.327-.041-.656-.082-.981-.133-.236-.038-.469-.083-.7-.127-.29-.052-.579-.105-.866-.165-.263-.055-.524-.119-.784-.181s-.5-.119-.744-.184c-.292-.078-.583-.162-.871-.247-.2-.06-.406-.121-.608-.185q-.488-.156-.968-.328c-.152-.054-.3-.11-.454-.165q-.543-.2-1.077-.425c-.092-.038-.182-.078-.274-.117-.406-.174-.809-.355-1.206-.546l-.049-.024A31.225,31.225,0,0,1,9.735,53.523a24.5,24.5,0,0,1,16.031-16.8c.154.094.315.179.474.267M58.519,51.41A26.741,26.741,0,0,0,42.93,35.124a14.428,14.428,0,1,0-19.27,0A26.744,26.744,0,0,0,8.071,51.41a31.066,31.066,0,1,1,56.3-18.115,30.9,30.9,0,0,1-5.85,18.115" transform="translate(-0.82 -0.017)" fill="#e64f38"/>
        </g>
    </g>
</svg>
