<?xml version="1.0" encoding="UTF-8"?>
<svg width="151px" height="72px" viewBox="0 0 151 72" version="1.1" xmlns="http://www.w3.org/2000/svg" xmlns:xlink="http://www.w3.org/1999/xlink">
    <!-- Generator: sketchtool 51.1 (57501) - http://www.bohemiancoding.com/sketch -->
    <title>C12B0192-06A7-4C14-8BB7-15D98D2F3C7B</title>
    <desc>Created with sketchtool.</desc>
    <defs></defs>
    <g id="Page-1" stroke="none" stroke-width="1" fill="none" fill-rule="evenodd">
        <g id="Theme-Selection---WP-File-Download" transform="translate(-1123.000000, -543.000000)" stroke="#5F879B" stroke-width="2.5">
            <g id="Group-4" transform="translate(822.000000, 471.000000)">
                <g id="Group-2-Copy" transform="translate(261.000000, 13.000000)">
                    <g id="Group-3">
                        <g id="Three-theme" transform="translate(42.000000, 61.000000)">
                            <g id="Group-37">
                                <rect id="Rectangle-11" x="27" y="0" width="120" height="15.1111111" rx="1.5"></rect>
                                <rect id="Rectangle-11-Copy-8" x="0" y="0" width="18" height="15.1111111" rx="1.5"></rect>
                            </g>
                            <g id="Group-37-Copy" transform="translate(12.000000, 27.200000)">
                                <path d="M28.5,0 L133.5,-2.22044605e-16 C134.328427,-3.74224199e-16 135,0.671572875 135,1.5 L135,13.6111111 C135,14.4395382 134.328427,15.1111111 133.5,15.1111111 L28.5,15.1111111 C27.6715729,15.1111111 27,14.4395382 27,13.6111111 L27,1.5 C27,0.671572875 27.6715729,-6.98650109e-17 28.5,-2.22044605e-16 Z" id="Rectangle-11"></path>
                                <rect id="Rectangle-11-Copy-8" x="0" y="0" width="18" height="15.1111111" rx="1.5"></rect>
                            </g>
                            <g id="Group-37-Copy-2" transform="translate(25.500000, 52.888889)">
                                <path d="M28.5,0 L120,0 C120.828427,-1.52179594e-16 121.5,0.671572875 121.5,1.5 L121.5,13.6111111 C121.5,14.4395382 120.828427,15.1111111 120,15.1111111 L28.5,15.1111111 C27.6715729,15.1111111 27,14.4395382 27,13.6111111 L27,1.5 C27,0.671572875 27.6715729,1.52179594e-16 28.5,0 Z" id="Rectangle-11"></path>
                                <rect id="Rectangle-11-Copy-8" x="0" y="0" width="18" height="15.1111111" rx="1.5"></rect>
                            </g>
                        </g>
                    </g>
                </g>
            </g>
        </g>
    </g>
</svg>